<?xml version="1.0" standalone="no"?>
<!DOCTYPE svg PUBLIC "-//W3C//DTD SVG 20010904//EN"
 "http://www.w3.org/TR/2001/REC-SVG-20010904/DTD/svg10.dtd">
<svg version="1.0" xmlns="http://www.w3.org/2000/svg"
 width="416.000000pt" height="221.000000pt" viewBox="0 0 416.000000 221.000000"
 preserveAspectRatio="xMidYMid meet">

<g transform="translate(0.000000,221.000000) scale(0.100000,-0.100000)"
fill="#000000" stroke="none">
<path d="M1715 2194 c-16 -2 -84 -8 -150 -14 -405 -36 -857 -152 -1118 -287
-88 -46 -174 -138 -222 -236 -19 -41 -35 -82 -35 -91 0 -11 -9 -16 -30 -16
-19 0 -40 -9 -54 -23 -24 -25 -22 -9 -61 -392 -8 -77 -22 -206 -30 -287 -15
-134 -15 -149 0 -178 10 -20 26 -33 45 -37 26 -5 30 -10 30 -37 0 -81 59 -204
131 -271 111 -104 490 -258 751 -305 208 -37 367 -21 523 55 161 77 265 193
401 446 108 201 153 245 220 213 37 -18 76 -76 179 -264 149 -274 307 -406
538 -454 239 -50 585 27 953 212 99 50 130 71 176 121 63 67 98 143 106 229 4
43 8 52 24 52 10 0 30 12 44 27 24 26 25 32 19 108 -3 44 -10 114 -15 155 -6
41 -14 123 -20 183 -5 59 -15 155 -20 215 -16 165 -26 207 -56 221 -14 6 -36
11 -49 11 -18 0 -25 6 -25 19 0 38 -82 182 -133 234 -128 129 -529 272 -962
342 -250 40 -348 47 -740 50 -214 2 -403 1 -420 -1z m755 -165 c165 -10 391
-42 570 -80 321 -69 620 -184 691 -267 76 -89 86 -127 118 -462 19 -187 42
-410 51 -490 5 -41 7 -77 4 -79 -5 -5 -68 55 -336 318 l-146 144 -54 -45 c-77
-65 -94 -73 -123 -54 -13 9 -26 24 -29 33 -3 10 -41 48 -83 83 -43 36 -98 83
-123 105 -86 77 -168 145 -174 145 -4 0 -41 -30 -84 -66 -42 -36 -93 -74 -112
-84 -19 -10 -53 -37 -75 -59 -100 -104 -190 -119 -230 -40 -15 27 -111 139
-233 269 -29 30 -52 58 -52 62 0 10 -61 -2 -77 -14 -7 -5 -18 -8 -25 -6 -8 2
-67 61 -132 131 -66 70 -125 127 -133 125 -8 -2 -179 -168 -381 -371 l-367
-367 -74 60 -75 61 -40 -38 c-23 -21 -98 -92 -167 -158 -222 -210 -319 -298
-325 -292 -3 3 0 52 6 109 6 56 17 168 25 248 8 80 20 190 25 245 6 55 17 164
25 242 8 78 19 153 26 165 28 53 118 128 202 167 186 87 503 179 742 215 158
24 204 29 435 50 90 8 582 5 730 -5z m-645 -659 c70 -77 129 -140 133 -140 3
0 21 14 39 32 20 19 36 28 42 22 12 -14 199 -239 256 -308 105 -129 498 -603
531 -640 31 -35 36 -38 49 -25 14 13 -1 53 -122 343 l-136 327 114 115 c62 63
118 114 123 114 11 0 51 -37 276 -250 96 -92 226 -215 289 -273 163 -152 175
-147 97 45 -30 73 -52 135 -50 137 3 4 33 -17 272 -193 180 -132 174 -123 123
-201 -22 -33 -49 -52 -156 -107 -239 -122 -535 -208 -717 -208 -225 0 -394
113 -532 355 -135 236 -162 277 -207 320 -83 78 -192 93 -286 39 -63 -36 -110
-98 -202 -263 -127 -232 -211 -331 -331 -391 -68 -34 -179 -60 -258 -60 -180
0 -471 85 -723 210 -87 44 -169 111 -169 139 0 5 24 26 53 48 89 67 239 177
312 228 39 27 89 64 113 82 24 18 49 33 55 33 7 -1 84 -40 172 -89 l160 -87 5
-235 c3 -129 7 -235 8 -236 1 -2 10 -3 20 -3 19 0 60 101 402 993 57 147 107
267 111 267 4 0 64 -63 134 -140z"/>
</g>
</svg>
