<?xml version="1.0" standalone="no"?>
<!DOCTYPE svg PUBLIC "-//W3C//DTD SVG 20010904//EN"
 "http://www.w3.org/TR/2001/REC-SVG-20010904/DTD/svg10.dtd">
<svg version="1.0" xmlns="http://www.w3.org/2000/svg"
 width="416.000000pt" height="221.000000pt" viewBox="0 0 416.000000 221.000000"
 preserveAspectRatio="xMidYMid meet">

<g transform="translate(0.000000,221.000000) scale(0.100000,-0.100000)"
fill="#000000" stroke="none">
<path d="M1715 2194 c-16 -2 -84 -8 -150 -14 -405 -36 -857 -152 -1118 -287
-88 -46 -174 -138 -222 -236 -19 -41 -35 -82 -35 -91 0 -11 -9 -16 -30 -16
-19 0 -40 -9 -54 -23 -24 -25 -22 -9 -61 -392 -8 -77 -22 -206 -30 -287 -15
-134 -15 -149 0 -178 10 -20 26 -33 45 -37 26 -5 30 -10 30 -37 0 -81 59 -204
131 -271 111 -104 490 -258 751 -305 208 -37 367 -21 523 55 161 77 265 193
401 446 108 201 153 245 220 213 37 -18 76 -76 179 -264 149 -274 307 -406
538 -454 239 -50 585 27 953 212 99 50 130 71 176 121 63 67 98 143 106 229 4
43 8 52 24 52 10 0 30 12 44 27 24 26 25 32 19 108 -3 44 -10 114 -15 155 -6
41 -14 123 -20 183 -5 59 -15 155 -20 215 -16 165 -26 207 -56 221 -14 6 -36
11 -49 11 -18 0 -25 6 -25 19 0 38 -82 182 -133 234 -128 129 -529 272 -962
342 -250 40 -348 47 -740 50 -214 2 -403 1 -420 -1z m659 -160 c13 -5 16 -22
16 -76 l0 -70 -77 72 -78 71 -5 -101 -5 -100 -52 46 c-49 42 -53 49 -53 90 0
32 -4 44 -15 44 -9 0 -15 -9 -15 -25 0 -26 -14 -33 -25 -15 -5 8 -11 7 -21 -1
-12 -10 -12 -14 3 -25 16 -12 15 -13 -14 -14 -23 0 -33 -5 -33 -15 0 -11 12
-15 46 -15 40 0 52 -6 99 -47 l54 -48 -111 -5 -112 -5 84 -70 85 -70 -79 -3
c-73 -3 -81 -1 -106 23 -26 25 -60 34 -60 15 0 -6 7 -13 15 -16 22 -9 18 -24
-5 -24 -11 0 -20 -7 -20 -15 0 -8 9 -15 20 -15 25 0 25 -9 3 -26 -16 -12 -16
-15 -3 -23 11 -8 23 -3 45 19 29 28 36 30 114 30 45 0 81 -4 79 -8 -8 -19
-189 -173 -201 -170 -7 2 -66 61 -131 131 -66 70 -125 127 -133 125 -8 -2
-179 -168 -381 -371 l-367 -367 -74 60 -75 61 -40 -38 c-23 -21 -66 -62 -98
-92 -31 -30 -61 -50 -67 -47 -6 4 -9 12 -5 17 6 11 -36 99 -48 99 -12 0 -59
-90 -53 -101 4 -5 -1 -21 -10 -35 -9 -13 -13 -29 -10 -34 3 -6 -1 -20 -9 -32
-17 -24 -21 -40 -8 -36 4 2 9 1 12 -2 7 -8 -189 -194 -196 -187 -3 3 0 52 6
109 6 56 17 168 25 248 8 80 20 190 25 245 6 55 17 164 25 242 8 78 19 153 26
165 28 53 118 128 202 167 186 87 503 179 742 215 158 24 204 29 435 50 67 6
619 6 634 0z m174 -12 c21 -7 18 -12 -47 -70 l-71 -63 0 70 0 71 48 -1 c26 -1
57 -4 70 -7z m140 -18 c7 -2 12 -20 12 -45 0 -37 -5 -47 -42 -78 -70 -61 -68
-63 -68 43 l0 94 43 -5 c23 -2 48 -6 55 -9z m296 -45 c354 -70 670 -187 747
-277 76 -89 86 -127 118 -462 19 -187 42 -410 51 -490 5 -41 7 -77 4 -79 -5
-5 -68 55 -337 319 -132 130 -149 144 -167 133 -21 -14 -31 -5 -35 31 -2 12
-13 38 -25 59 l-23 39 -27 -44 c-15 -23 -25 -49 -22 -56 2 -7 -1 -19 -8 -27
-7 -8 -10 -21 -7 -29 3 -7 1 -18 -5 -24 -8 -8 -28 4 -71 41 -33 29 -81 70
-107 92 -27 22 -89 75 -138 117 l-89 77 -56 -6 c-54 -6 -59 -4 -102 31 -25 21
-45 40 -45 44 0 4 45 6 100 4 55 -2 100 0 99 5 0 4 -38 40 -84 78 -46 39 -84
73 -84 78 -1 4 36 7 81 7 79 0 83 -1 115 -32 27 -26 35 -29 46 -19 10 10 9 15
-5 25 -23 17 -23 26 2 26 11 0 20 7 20 15 0 9 -9 15 -22 15 -20 0 -20 1 -5 18
10 10 17 22 17 25 0 16 -36 5 -60 -18 -25 -24 -33 -26 -105 -23 l-79 3 83 70
83 70 -113 5 -113 5 55 48 c50 41 62 47 103 47 34 0 46 4 46 15 0 10 -10 15
-31 15 -26 0 -30 2 -19 15 15 18 3 42 -13 26 -17 -17 -27 -13 -27 10 0 19 4
20 53 14 28 -3 119 -20 201 -36z m-594 -147 c0 -34 -1 -34 -19 -18 -15 14 -20
14 -30 2 -9 -11 -6 -19 17 -38 26 -22 49 -78 33 -78 -4 0 -33 23 -64 51 l-57
51 0 84 0 85 60 -52 c52 -45 60 -57 60 -87z m170 60 l0 -78 -58 -57 c-32 -31
-61 -57 -65 -57 -19 0 -4 48 25 77 24 25 29 36 20 45 -9 9 -16 7 -32 -7 -20
-18 -20 -18 -20 16 0 28 9 42 58 86 31 29 60 52 65 53 4 0 7 -35 7 -78z m-262
-154 c33 -29 61 -56 61 -60 1 -5 -12 -8 -27 -8 -18 0 -38 11 -57 30 -33 35
-62 25 -30 -10 18 -20 18 -20 -16 -20 -26 0 -48 12 -91 48 -83 69 -82 72 16
72 l83 0 61 -52z m450 42 c-1 -5 -30 -32 -63 -60 -40 -34 -68 -50 -87 -50 -31
0 -37 14 -12 28 13 7 13 10 1 20 -11 9 -20 5 -42 -18 -20 -21 -38 -30 -59 -30
l-31 1 63 59 63 60 85 0 c51 0 84 -4 82 -10z m-503 -160 c-32 -35 -3 -45 30
-10 19 20 39 30 58 30 16 0 27 -4 25 -8 -1 -5 -31 -34 -64 -65 l-62 -57 -83 0
-84 1 70 64 c52 49 77 65 99 65 29 0 29 0 11 -20z m300 -10 c22 -23 31 -27 42
-18 12 10 12 13 -1 20 -23 13 -19 28 7 28 14 0 49 -24 92 -65 l70 -64 -83 -1
-83 0 -63 58 c-35 31 -65 60 -65 65 -1 4 12 7 27 7 18 0 38 -11 57 -30z m-153
-30 c-3 -19 -15 -38 -34 -51 -23 -17 -27 -24 -17 -35 10 -13 14 -12 29 1 23
21 27 19 22 -14 -2 -18 -25 -49 -63 -87 l-59 -58 0 84 0 85 57 52 c32 29 61
52 64 53 3 0 4 -14 1 -30z m126 -44 l42 -40 0 -78 c0 -43 -4 -78 -8 -78 -4 0
-33 26 -65 58 -42 42 -57 65 -57 85 0 25 2 27 21 16 37 -19 45 6 10 32 -23 17
-31 31 -31 52 0 30 0 30 23 11 12 -10 41 -36 65 -58z m-693 -146 c70 -77 129
-140 133 -140 3 0 21 14 39 32 20 19 36 28 42 22 12 -14 199 -239 256 -308
105 -129 498 -603 531 -640 31 -35 36 -38 49 -25 14 13 -1 53 -122 343 l-136
327 114 115 c62 63 118 114 123 114 11 0 51 -37 276 -250 96 -92 226 -215 289
-273 163 -152 175 -147 97 45 -30 73 -52 135 -50 137 3 4 33 -17 272 -193 180
-132 174 -123 123 -201 -22 -33 -49 -52 -156 -107 -239 -122 -535 -208 -717
-208 -225 0 -394 113 -532 355 -135 236 -162 277 -207 320 -83 78 -192 93
-286 39 -63 -36 -110 -98 -202 -263 -127 -232 -211 -331 -331 -391 -68 -34
-179 -60 -258 -60 -180 0 -471 85 -723 210 -87 44 -169 111 -169 139 0 5 24
26 53 48 89 67 239 177 312 228 39 27 89 64 113 82 24 18 49 33 55 33 7 -1 84
-40 172 -89 l160 -87 5 -235 c3 -129 7 -235 8 -236 1 -2 10 -3 20 -3 19 0 60
101 402 993 57 147 107 267 111 267 4 0 64 -63 134 -140z m327 47 l-32 -32
-24 30 -24 30 51 5 c29 3 54 4 56 2 3 -1 -9 -17 -27 -35z m78 -64 l-1 -88 -45
49 -45 49 38 39 c20 21 41 38 45 38 4 0 8 -39 8 -87z m424 39 c37 -34 46 -49
46 -76 0 -31 -9 -41 -102 -115 -87 -68 -105 -79 -116 -67 -11 10 -11 19 -3 34
8 15 7 23 -4 32 -8 7 -15 20 -15 29 0 9 -7 25 -15 35 -9 12 -15 42 -15 75 l0
56 80 -80 80 -80 0 104 c0 56 4 101 9 99 5 -1 30 -22 55 -46z m-265 -59 c-6
-59 -30 -126 -49 -138 -7 -4 -7 -13 1 -26 20 -39 -1 -32 -39 11 -61 71 -61 65
14 141 38 38 71 69 74 69 3 0 3 -26 -1 -57z"/>
</g>
</svg>
