<?xml version="1.0" standalone="no"?>
<!DOCTYPE svg PUBLIC "-//W3C//DTD SVG 20010904//EN"
 "http://www.w3.org/TR/2001/REC-SVG-20010904/DTD/svg10.dtd">
<svg version="1.0" xmlns="http://www.w3.org/2000/svg"
 width="416.000000pt" height="221.000000pt" viewBox="0 0 416.000000 221.000000"
 preserveAspectRatio="xMidYMid meet">

<g transform="translate(0.000000,221.000000) scale(0.100000,-0.100000)"
fill="#000000" stroke="none">
<path d="M1845 2204 c-204 -11 -542 -48 -640 -69 -11 -3 -32 -7 -47 -9 -105
-17 -391 -97 -508 -141 -182 -70 -260 -113 -327 -180 -41 -43 -72 -87 -93
-132 -53 -115 -55 -118 -80 -121 -14 -2 -35 -13 -47 -24 -23 -22 -28 -49 -46
-248 -5 -47 -14 -141 -22 -210 -40 -362 -40 -378 -18 -408 11 -15 32 -28 46
-30 24 -3 27 -8 27 -41 0 -90 76 -236 151 -291 102 -73 397 -201 576 -249 193
-51 386 -65 525 -36 116 24 246 95 332 181 84 83 135 158 232 338 76 141 130
206 173 206 54 0 85 -39 201 -250 64 -115 147 -237 198 -289 58 -59 204 -151
267 -167 291 -77 609 -20 1030 185 146 72 200 117 249 210 20 39 37 74 37 78
0 5 2 17 4 28 4 17 12 65 14 88 1 4 9 7 19 7 10 0 28 10 40 23 27 28 28 80 8
246 -8 64 -20 170 -26 236 -10 105 -20 204 -34 325 -3 19 -5 38 -5 43 -2 18
-44 47 -70 47 -26 0 -30 6 -51 63 -22 61 -88 164 -135 211 -13 13 -50 39 -82
57 -32 18 -60 36 -61 41 -2 4 -7 6 -11 3 -5 -2 -30 6 -57 19 -58 27 -165 65
-289 101 -49 14 -97 29 -105 32 -8 3 -22 7 -30 8 -8 2 -35 7 -60 13 -188 41
-400 75 -595 92 -120 11 -576 21 -690 14z m672 -54 c185 -17 322 -37 573 -87
51 -10 275 -75 364 -105 113 -38 283 -119 325 -154 47 -39 115 -141 140 -209
28 -75 37 -85 71 -85 15 0 32 -6 38 -13 12 -14 33 -173 52 -382 7 -71 18 -179
26 -240 22 -172 18 -205 -27 -205 -24 0 -49 -38 -49 -75 0 -75 -70 -210 -133
-257 -90 -66 -363 -186 -544 -238 -240 -69 -446 -78 -588 -25 -198 74 -302
176 -445 435 -129 234 -161 270 -241 270 -46 0 -53 -3 -97 -48 -30 -30 -73
-96 -119 -182 -95 -177 -135 -236 -216 -319 -81 -82 -211 -152 -325 -176 -180
-37 -408 -2 -692 106 -245 93 -380 171 -428 246 -39 61 -72 154 -72 203 0 41
-14 60 -47 60 -38 0 -46 30 -34 133 6 51 17 162 26 247 32 316 47 435 57 448
6 6 21 12 33 12 23 0 75 51 75 73 0 31 66 143 114 191 39 40 77 66 142 97 356
167 793 261 1369 293 105 6 529 -3 652 -14z"/>
<path d="M1870 2073 c-497 -17 -999 -121 -1315 -272 -79 -37 -110 -59 -148
-101 -93 -104 -95 -109 -148 -670 -5 -58 -19 -180 -30 -272 -19 -165 -19 -167
-1 -223 34 -101 74 -136 245 -220 84 -40 195 -87 247 -104 197 -64 247 -73
410 -78 238 -7 320 21 460 159 79 78 129 150 205 293 118 223 176 278 286 278
50 0 66 -5 108 -33 56 -38 98 -98 201 -285 85 -153 100 -174 186 -260 117
-117 221 -155 422 -155 109 0 157 5 251 26 64 14 132 32 151 39 19 7 69 25
110 40 97 35 284 125 336 163 25 18 51 51 69 86 27 54 28 58 22 173 -3 65 -13
177 -21 248 -8 72 -22 200 -31 285 -37 362 -35 352 -66 417 -41 86 -104 145
-202 192 -153 73 -408 152 -612 190 -60 12 -119 25 -130 31 -30 14 -306 40
-530 50 -188 9 -298 10 -475 3z m650 -54 c217 -19 325 -32 335 -39 6 -4 62
-18 125 -30 209 -39 463 -118 615 -190 145 -69 206 -160 224 -335 6 -55 17
-165 25 -245 30 -286 47 -446 52 -490 l5 -45 -93 90 c-51 49 -159 155 -241
235 -131 129 -149 144 -166 133 -15 -10 -22 -9 -31 2 -6 7 -10 19 -9 27 3 16
-32 88 -42 88 -12 0 -49 -66 -49 -88 0 -11 -5 -24 -11 -28 -6 -3 -9 -14 -6
-24 17 -65 -53 -16 -340 238 -40 35 -78 62 -85 59 -7 -3 -74 -56 -148 -117
-74 -61 -166 -129 -203 -152 l-68 -41 -35 34 c-19 19 -106 112 -192 207 -86
94 -162 172 -168 172 -6 0 -19 -9 -29 -20 -26 -28 -49 -25 -80 12 -68 80 -210
228 -219 228 -6 0 -177 -166 -381 -370 l-370 -370 -69 55 c-38 30 -73 55 -79
55 -5 0 -52 -39 -103 -86 -51 -47 -98 -83 -104 -79 -6 3 -8 10 -5 15 6 10 -29
85 -44 94 -11 7 -63 -83 -55 -96 3 -5 -2 -20 -11 -34 -9 -13 -13 -29 -10 -35
4 -5 -1 -21 -9 -34 -15 -22 -15 -25 -1 -25 8 0 15 -4 15 -9 0 -10 -199 -195
-204 -190 -2 2 4 69 14 149 10 80 23 201 29 270 37 402 54 525 77 570 43 86
91 130 199 181 316 151 797 251 1315 273 117 5 514 -4 630 -15z m-668 -517
c79 -85 111 -100 138 -67 7 8 18 15 24 15 6 0 94 -90 194 -200 101 -110 189
-200 196 -200 31 0 139 73 280 187 l149 122 72 -62 c40 -34 129 -110 198 -169
69 -60 130 -108 135 -108 17 0 45 39 39 54 -4 9 -2 18 3 21 6 4 10 15 10 26 0
11 5 29 11 40 8 16 13 18 25 8 8 -6 14 -22 14 -34 0 -13 9 -33 19 -46 16 -20
23 -22 38 -13 20 13 22 11 331 -288 104 -102 162 -165 162 -178 0 -24 -7 -19
-258 167 -86 64 -161 113 -170 111 -25 -5 -19 -31 36 -163 27 -66 48 -122 46
-124 -2 -2 -110 97 -240 220 -130 123 -281 266 -335 317 -55 50 -105 92 -114
92 -14 0 -255 -233 -255 -247 0 -9 118 -298 245 -601 10 -23 16 -45 13 -47 -3
-3 -49 47 -102 112 -105 128 -179 219 -321 388 -219 263 -345 416 -366 445
-29 39 -51 38 -83 -2 -16 -21 -29 -29 -34 -23 -5 6 -54 60 -108 120 -54 61
-108 121 -120 133 -33 36 -53 25 -79 -43 -29 -77 -90 -237 -150 -395 -26 -69
-53 -138 -60 -155 -7 -16 -48 -120 -90 -230 -43 -110 -86 -222 -97 -250 -11
-27 -29 -76 -40 -107 -11 -32 -24 -58 -29 -58 -5 0 -10 55 -10 123 -1 67 -4
173 -8 235 l-6 114 -90 48 c-197 106 -244 130 -255 130 -11 0 -219 -146 -369
-259 -92 -70 -150 -111 -156 -111 -3 0 -5 6 -5 14 0 8 46 58 102 111 88 82
101 98 91 114 -7 11 -8 23 -1 34 5 10 6 22 3 27 -3 6 1 20 9 32 9 12 16 32 16
43 1 11 7 31 14 44 l14 25 17 -33 c9 -18 14 -35 11 -38 -8 -9 13 -43 27 -43 7
0 54 38 104 85 50 47 94 85 98 85 3 0 31 -19 62 -42 30 -24 64 -49 75 -57 18
-14 43 9 391 359 l370 373 46 -49 c25 -27 81 -86 123 -132z"/>
</g>
</svg>
