<?xml version="1.0" standalone="no"?>
<!DOCTYPE svg PUBLIC "-//W3C//DTD SVG 20010904//EN"
 "http://www.w3.org/TR/2001/REC-SVG-20010904/DTD/svg10.dtd">
<svg version="1.0" xmlns="http://www.w3.org/2000/svg"
 width="30.000000pt" height="30.000000pt" viewBox="0 0 30.000000 30.000000"
 preserveAspectRatio="xMidYMid meet">

<g transform="translate(0.000000,30.000000) scale(0.100000,-0.100000)"
fill="#000000" stroke="none">
<path d="M38 163 c-2 -54 0 -105 4 -113 10 -20 11 -8 8 88 -1 46 2 72 9 72 16
0 14 25 -3 39 -12 11 -15 -2 -18 -86z"/>
<path d="M101 246 c-8 -9 -11 -47 -9 -107 3 -86 5 -94 23 -94 18 0 20 8 23 96
2 73 -1 99 -11 108 -11 9 -17 8 -26 -3z m16 -128 c-3 -7 -5 -2 -5 12 0 14 2
19 5 13 2 -7 2 -19 0 -25z"/>
<path d="M181 246 c-8 -9 -11 -47 -9 -107 3 -86 5 -94 23 -94 18 0 20 8 23 96
2 73 -1 99 -11 108 -11 9 -17 8 -26 -3z m16 -128 c-3 -7 -5 -2 -5 12 0 14 2
19 5 13 2 -7 2 -19 0 -25z"/>
<path d="M243 249 c-16 -16 -17 -39 -2 -39 7 0 10 -26 9 -72 -3 -97 -2 -108 8
-88 4 8 5 59 2 113 -4 79 -7 96 -17 86z"/>
</g>
</svg>
